<svg id="tiktok-logo" xmlns="http://www.w3.org/2000/svg" width="43.308" height="43.309" viewBox="0 0 43.308 43.309">
  <path id="パス_8" data-name="パス 8" d="M4.331,0H38.978a4.331,4.331,0,0,1,4.331,4.331V38.978a4.331,4.331,0,0,1-4.331,4.331H4.331A4.331,4.331,0,0,1,0,38.978V4.331A4.331,4.331,0,0,1,4.331,0Z" fill="#010101" fill-rule="evenodd"/>
  <path id="パス_9" data-name="パス 9" d="M155.264,207.409a2.367,2.367,0,1,0,0-4.734H154.9a2.367,2.367,0,1,1,0,4.734Z" transform="translate(-128.07 -167.565)" fill="#ee1d51" fill-rule="evenodd"/>
  <path id="パス_10" data-name="パス 10" d="M141.613,202.675h-.359a2.367,2.367,0,1,0,0,4.734h.359a2.367,2.367,0,1,1,0-4.734Z" transform="translate(-114.811 -167.565)" fill="#66c8cf" fill-rule="evenodd"/>
  <ellipse id="楕円形_2" data-name="楕円形 2" cx="1.16" cy="1.151" rx="1.16" ry="1.151" transform="translate(25.658 36.326)" fill="#010101"/>
  <path id="パス_11" data-name="パス 11" d="M50,196.5v1.2h1.405v4.571h1.406v-4.539h1.144l.392-1.232Zm11.505,0v1.2h1.405v4.571h1.406v-4.539H65.46l.392-1.232Zm-6.9.681a.686.686,0,1,1,.686.681A.683.683,0,0,1,54.609,197.181Zm0,1.167h1.372v3.923H54.609ZM56.57,196.5v5.771h1.373V200.78l.425-.389,1.34,1.913h1.471l-1.929-2.788,1.732-1.686H59.315l-1.373,1.362V196.5Zm14.806,0v5.771h1.373V200.78l.425-.389,1.34,1.913h1.471l-1.929-2.788,1.732-1.686H74.122l-1.373,1.362V196.5Z" transform="translate(-41.338 -162.46)" fill="#fff" fill-rule="evenodd"/>
  <path id="パス_12" data-name="パス 12" d="M88.136,36.2a11.533,11.533,0,0,0,6.727,2.152V33.532a6.8,6.8,0,0,1-1.413-.148v3.8a11.534,11.534,0,0,1-6.727-2.152v9.846a8.925,8.925,0,0,1-13.89,7.41,8.924,8.924,0,0,0,15.3-6.235V36.2Zm1.743-4.868A6.723,6.723,0,0,1,88.136,27.4V26.78H86.8A6.755,6.755,0,0,0,89.879,31.337ZM75.951,48.506a4.082,4.082,0,0,1,4.487-6.358V37.216a9,9,0,0,0-1.412-.081v3.839a4.081,4.081,0,0,0-3.075,7.532Z" transform="translate(-60.217 -22.141)" fill="#ee1d52" fill-rule="evenodd"/>
  <path id="パス_13" data-name="パス 13" d="M74.587,35.03a11.534,11.534,0,0,0,6.727,2.152v-3.8a6.752,6.752,0,0,1-3.572-2.047,6.755,6.755,0,0,1-3.081-4.557H71.144V46.05a4.082,4.082,0,0,1-7.331,2.456,4.081,4.081,0,0,1,3.075-7.532V37.135A8.917,8.917,0,0,0,60.7,52.286a8.925,8.925,0,0,0,13.89-7.41Z" transform="translate(-48.08 -22.141)" fill="#fff" fill-rule="evenodd"/>
  <path id="パス_14" data-name="パス 14" d="M74.572,27.779V26.752A6.728,6.728,0,0,1,71,25.732,6.747,6.747,0,0,0,74.572,27.779Zm-6.653-6.6q-.048-.275-.074-.554V20H62.99V39.271a4.083,4.083,0,0,1-5.918,3.63A4.082,4.082,0,0,0,64.4,40.445V21.175ZM60.147,31.529V30.436A8.932,8.932,0,0,0,50,39.271a8.908,8.908,0,0,0,3.956,7.41,8.917,8.917,0,0,1,6.191-15.151Z" transform="translate(-41.338 -16.535)" fill="#69c9d0" fill-rule="evenodd"/>
  <path id="パス_15" data-name="パス 15" d="M143.361,207.409a2.367,2.367,0,1,0,0-4.734h-.033a2.367,2.367,0,1,0,0,4.734Zm-1.177-2.367a1.16,1.16,0,1,1,1.161,1.151A1.156,1.156,0,0,1,142.184,205.042Z" transform="translate(-116.526 -167.565)" fill="#fff" fill-rule="evenodd"/>
</svg>
